<?xml version="1.0" standalone="no"?>
<svg xmlns:xlink="http://www.w3.org/1999/xlink" id="wave" style="transform:rotate(180deg); transition: 0.3s" viewBox="0 0 1440 110" version="1.1" xmlns="http://www.w3.org/2000/svg"><defs><linearGradient id="sw-gradient-0" x1="0" x2="0" y1="1" y2="0"><stop stop-color="rgba(255, 249, 234, 1)" offset="0%"/><stop stop-color="rgba(255, 249, 234, 1)" offset="100%"/></linearGradient></defs><path style="transform:translate(0, 0px); opacity:1" fill="url(#sw-gradient-0)" d="M0,88L26.7,73.3C53.3,59,107,29,160,14.7C213.3,0,267,0,320,1.8C373.3,4,427,7,480,23.8C533.3,40,587,70,640,75.2C693.3,81,747,62,800,47.7C853.3,33,907,22,960,22C1013.3,22,1067,33,1120,31.2C1173.3,29,1227,15,1280,14.7C1333.3,15,1387,29,1440,36.7C1493.3,44,1547,44,1600,47.7C1653.3,51,1707,59,1760,60.5C1813.3,62,1867,59,1920,47.7C1973.3,37,2027,18,2080,23.8C2133.3,29,2187,59,2240,58.7C2293.3,59,2347,29,2400,29.3C2453.3,29,2507,59,2560,66C2613.3,73,2667,59,2720,60.5C2773.3,62,2827,81,2880,73.3C2933.3,66,2987,33,3040,16.5C3093.3,0,3147,0,3200,7.3C3253.3,15,3307,29,3360,44C3413.3,59,3467,73,3520,69.7C3573.3,66,3627,44,3680,42.2C3733.3,40,3787,59,3813,67.8L3840,77L3840,110L3813.3,110C3786.7,110,3733,110,3680,110C3626.7,110,3573,110,3520,110C3466.7,110,3413,110,3360,110C3306.7,110,3253,110,3200,110C3146.7,110,3093,110,3040,110C2986.7,110,2933,110,2880,110C2826.7,110,2773,110,2720,110C2666.7,110,2613,110,2560,110C2506.7,110,2453,110,2400,110C2346.7,110,2293,110,2240,110C2186.7,110,2133,110,2080,110C2026.7,110,1973,110,1920,110C1866.7,110,1813,110,1760,110C1706.7,110,1653,110,1600,110C1546.7,110,1493,110,1440,110C1386.7,110,1333,110,1280,110C1226.7,110,1173,110,1120,110C1066.7,110,1013,110,960,110C906.7,110,853,110,800,110C746.7,110,693,110,640,110C586.7,110,533,110,480,110C426.7,110,373,110,320,110C266.7,110,213,110,160,110C106.7,110,53,110,27,110L0,110Z"/></svg>